<?xml version="1.0" encoding="UTF-8"?><svg id="Camada_2" xmlns="http://www.w3.org/2000/svg" viewBox="0 0 52.98 76.82"><defs><style>.cls-1{fill:none;}.cls-1,.cls-2{stroke:#fff;stroke-miterlimit:10;}.cls-2{fill:#fff;stroke-width:.25px;}</style></defs><g id="Camada_1-2"><rect class="cls-2" x="17.5" y="69.94" width="18.35" height="6.76"/><path class="cls-2" d="M50.13,19.74v-1.37c0-8.69-7.95-15.73-17.75-15.73h-11.51C11.06,2.64,3.11,9.68,3.11,18.37v1.35h9.19v6.57H3.11v2.52h9.01v6.57H3.11v2.8h9.08v6.57H3.11v4.97c0,8.69,7.95,15.73,17.75,15.73h11.51c9.81,0,17.75-7.04,17.75-15.73v-4.94h-10.38v-6.57h10.38v-2.8h-10.45v-6.57h10.45v-2.52h-10.27v-6.57h10.27ZM27.61,57.6h-1.91V12.71h1.91v44.89Z"/><rect class="cls-1" x=".5" y=".5" width="51.98" height="67.2" rx="16.47" ry="16.47"/></g></svg>