<?xml version="1.0" encoding="UTF-8"?><svg id="Camada_2" xmlns="http://www.w3.org/2000/svg" viewBox="0 0 78.64 66.84"><defs><style>.cls-1{fill:#fff;}</style></defs><g id="Camada_1-2"><g id="_216Vrq.tif"><path class="cls-1" d="M38.56.01c-10.45.34-13.12,7.68-12.7,17.05.36,8.01,5.93,16.35,14.8,15.56,7.47-.67,11.95-8.9,12.21-15.71C53.25,6.6,49.87-.36,38.56.01ZM24.79,3.65c-5.16-.95-11.4-.63-13.79,4.85-1.35,3.1-1.56,8.24-.84,11.53,1.58,7.15,8.52,12.45,15.53,8.23-1.09-1.79-1.96-3.73-2.51-5.75-1.36-5.02-1.05-12.24.84-17.1.1-.26.86-1.68.77-1.76ZM53.94,3.65c-.09.08.67,1.5.77,1.76,1.89,4.86,2.2,12.07.84,17.1-.55,2.03-1.42,3.97-2.51,5.75,7,4.22,13.95-1.08,15.53-8.23.72-3.28.52-8.42-.84-11.53-2.39-5.48-8.62-5.8-13.79-4.85ZM20.95,33.09c-1.41-.18-2.7-.24-4.03-.8-.96-.41-1.61-1.11-2.48-1.5-7.25,1.41-12.47,2.97-13.85,11.01-.39,2.26-.75,6.93-.51,9.16.14,1.35,2.58,2.88,3.74,3.47,2.08,1.06,4.41,1.71,6.7,2.12.05-7.57.38-16.66,7.16-21.44l3.27-2.02Z"/><path class="cls-1" d="M41.2,66.82c-1.22.03-2.47.03-3.68,0-6.57-.18-16.89-1.31-22.02-5.82-.37-.32-1.47-1.4-1.57-1.8.3-5.57-.24-12.33,2.49-17.37,2.97-5.49,9.89-6.79,15.51-7.91,3.98,3.71,10.89,3.71,14.87,0,3.73.76,7.87,1.53,11.18,3.5,7.5,4.45,6.39,14.13,6.85,21.66-.09.51-1.18,1.56-1.6,1.93-5.13,4.51-15.45,5.65-22.02,5.82Z"/><path class="cls-1" d="M78.64,47.34v4.14c-2.55,3.04-6.64,4.36-10.43,5.06-.06-7.74-.36-16.61-7.25-21.5-1.01-.72-2.11-1.26-3.18-1.88,1.39-.32,2.68-.31,4.03-.88.96-.41,1.6-1.11,2.48-1.5,5.22,1.08,10.87,2.21,12.98,7.75,1.01,2.64,1.25,5.64,1.22,8.45l.16.37Z"/><path class="cls-1" d="M38.56.01c11.31-.37,14.69,6.59,14.31,16.9-.25,6.81-4.74,15.04-12.21,15.71-8.87.79-14.44-7.55-14.8-15.56C25.44,7.69,28.11.36,38.56.01Z"/><path class="cls-1" d="M24.79,3.65c.09.08-.67,1.5-.77,1.76-1.89,4.86-2.2,12.07-.84,17.1.55,2.03,1.42,3.97,2.51,5.75-7,4.22-13.95-1.08-15.53-8.23-.72-3.28-.52-8.42.84-11.53,2.39-5.48,8.62-5.8,13.79-4.85Z"/><path class="cls-1" d="M53.94,3.65c5.16-.95,11.4-.63,13.79,4.85,1.35,3.1,1.56,8.24.84,11.53-1.58,7.15-8.52,12.45-15.53,8.23,1.09-1.79,1.96-3.73,2.51-5.75,1.36-5.02,1.05-12.24-.84-17.1-.1-.26-.86-1.68-.77-1.76Z"/><path class="cls-1" d="M20.95,33.09l-3.27,2.02c-6.79,4.78-7.11,13.86-7.16,21.44-2.29-.41-4.62-1.06-6.7-2.12-1.16-.59-3.6-2.12-3.74-3.47-.24-2.23.13-6.9.51-9.16,1.38-8.05,6.6-9.6,13.85-11.01.88.39,1.52,1.1,2.48,1.5,1.33.56,2.62.63,4.03.8Z"/></g></g></svg>