<?xml version="1.0" encoding="UTF-8"?><svg id="Camada_2" xmlns="http://www.w3.org/2000/svg" viewBox="0 0 123.28 171.99"><defs><style>.cls-1{fill:#fff;}</style></defs><g id="Camada_1-2"><path class="cls-1" d="M66.22,0c-15.63,3.69-26.3,18.95-27.87,34.61-.74,7.36.61,15.3-.38,22.62-.36,2.66-7.65,24.86-11.73,21.76-2.36-7.91-9.91-14.49-18.01-15.99,5.92,9.95-1.42,19.74-4.29,29.2-10.57,34.86-.12,66.32,34.81,79.77,3.06.15.69-1.07-.19-1.82-12.08-10.25-15.82-19.4-13.21-35.55,1.42-8.81,7.53-15.89,4.89-24.62,5.78,1.64,7.87,6.38,11.97,10,11.07-15.01-1.17-33.91,16.32-45.2,1.73-1.12,3.92-1.71,5.69-2.8-1.53,7.83-2.17,16.02,2.57,22.94,2.08,3.03,6.05,5.61,8.41,8.59,5.61,7.08,9.44,16.43,10.03,25.47,5.86-1.28,4.79-9.09,7.5-12.99,7.71,18.12,10.24,40.18-6.5,53.98,44.27-13.2,42.75-62.71,26.99-97.98l-4.81,15.67-7.17,7.32c-1.59-15.51-7.98-32.48-18.21-44.35-2.86-3.32-6.88-5.69-9.77-9.18-10.08-12.17-11.2-26.59-7.03-41.46Z"/><path class="cls-1" d="M66.22,0c-4.17,14.88-3.04,29.3,7.03,41.46,2.89,3.49,6.91,5.86,9.77,9.18,10.23,11.86,16.62,28.84,18.21,44.35l7.17-7.32,4.81-15.67c15.76,35.27,17.28,84.78-26.99,97.98,16.75-13.81,14.21-35.87,6.5-53.98-2.71,3.9-1.64,11.71-7.5,12.99-.59-9.04-4.42-18.39-10.03-25.47-2.36-2.98-6.33-5.56-8.41-8.59-4.75-6.92-4.11-15.1-2.57-22.94-1.77,1.09-3.96,1.68-5.69,2.8-17.49,11.29-5.25,30.19-16.32,45.2-4.1-3.62-6.19-8.35-11.97-10,2.64,8.73-3.46,15.81-4.89,24.62-2.61,16.15,1.12,25.3,13.21,35.55.88.75,3.25,1.96.19,1.82C3.81,158.53-6.64,127.07,3.93,92.21c2.87-9.46,10.21-19.25,4.29-29.2,8.1,1.5,15.65,8.07,18.01,15.99,4.07,3.1,11.37-19.1,11.73-21.76.99-7.32-.36-15.26.38-22.62,1.57-15.67,12.24-30.93,27.87-34.61Z"/></g></svg>