<?xml version="1.0" encoding="UTF-8"?><svg id="Camada_2" xmlns="http://www.w3.org/2000/svg" viewBox="0 0 33.29 36.68"><defs><style>.cls-1{fill:#fff;}</style></defs><g id="Camada_1-2"><g id="vQ7RSG.tif"><path class="cls-1" d="M31.21,0c1.14.23,1.86,1.1,2.07,2.22v24.2c-.11.52-.23,1.03-.44,1.53-1.66,3.91-7.81,5.77-11.31,3.33-2.28-1.59-2.37-4.31-.85-6.48,2.02-2.9,6.47-4.22,9.74-2.81v-11.78c0-.32-.64-.73-.96-.68l-14.93,4.67c-.54.3-.93.7-1.16,1.28-.24,5.08-.04,10.2-.1,15.29-.36,3.01-3.11,5.17-5.93,5.73-.33.07-.69.07-1,.18-.53-.04-1.12.05-1.64,0-4.36-.4-6.14-4.44-3.36-7.91,2.03-2.53,6.08-3.81,9.15-2.62V9.06c0-.63.64-1.89,1.04-2.39.8-1,1.66-1.41,2.83-1.82,5.2-1.8,10.69-3.12,15.92-4.85h.93Z"/></g></g></svg>